<?xml version="1.0" encoding="utf-8"?>
<!-- Generator: Adobe Illustrator 26.0.1, SVG Export Plug-In . SVG Version: 6.00 Build 0)  -->
<svg version="1.1" id="Layer_1" xmlns="http://www.w3.org/2000/svg" xmlns:xlink="http://www.w3.org/1999/xlink" x="0px" y="0px"
	 viewBox="0 0 514 600" style="enable-background:new 0 0 514 600;" xml:space="preserve">
<style type="text/css">
	.st0{fill:#090A0B;}
	.st1{fill:url(#SVGID_1_);}
	.st2{fill:none;stroke:url(#SVGID_00000119798641147020005160000002591232146150909581_);stroke-width:10;}
	.st3{fill:none;stroke:url(#SVGID_00000026842823610853928760000005978286150945729929_);stroke-width:6;}
	.st4{fill:none;stroke:url(#SVGID_00000060730762032477021620000002503883130279917227_);stroke-width:6;}
	.st5{fill:none;stroke:url(#SVGID_00000090288606389208679260000012574828434092113804_);stroke-width:6;}
	.st6{fill:none;stroke:url(#SVGID_00000049185177292584113430000011747793254004705436_);stroke-width:6;}
</style>
<g>
	<path class="st0" d="M70,30.1h374c16.6,0,30,13.4,30,30v460c0,16.6-13.4,30-30,30H70c-16.6,0-30-13.4-30-30v-460
		C40,43.5,53.4,30.1,70,30.1z"/>
</g>
<g>
	
		<linearGradient id="SVGID_1_" gradientUnits="userSpaceOnUse" x1="465.2401" y1="14.8727" x2="33.354" y2="631.1093" gradientTransform="matrix(1 0 0 -1 0 602)">
		<stop  offset="0" style="stop-color:#030303"/>
		<stop  offset="1" style="stop-color:#1C1B16;stop-opacity:0.7"/>
	</linearGradient>
	<path class="st1" d="M70,30h374c16.6,0,30,13.4,30,30v460c0,16.6-13.4,30-30,30H70c-16.6,0-30-13.4-30-30V60C40,43.4,53.4,30,70,30
		z"/>
</g>
<g>
	
		<linearGradient id="SVGID_00000181792247824992313580000009500073999005896879_" gradientUnits="userSpaceOnUse" x1="257" y1="34.58" x2="257" y2="476.211" gradientTransform="matrix(1 0 0 -1 0 602)">
		<stop  offset="0" style="stop-color:#FFCD00"/>
		<stop  offset="1" style="stop-color:#FFCD00;stop-opacity:0.14"/>
	</linearGradient>
	
		<path shape-rendering="crispEdges" style="fill:none;stroke:url(#SVGID_00000181792247824992313580000009500073999005896879_);stroke-width:10;" d="
		M70,35h374c13.8,0,25,11.2,25,25v460c0,13.8-11.2,25-25,25H70c-13.8,0-25-11.2-25-25V60C45,46.2,56.2,35,70,35z"/>
</g>
<linearGradient id="SVGID_00000170276126358721293000000018445243892303651510_" gradientUnits="userSpaceOnUse" x1="104.9856" y1="323.8211" x2="228.0216" y2="316.5221" gradientTransform="matrix(1 0 0 -1 0 602)">
	<stop  offset="0" style="stop-color:#FFCD00"/>
	<stop  offset="1" style="stop-color:#484C26"/>
</linearGradient>
<path style="fill:none;stroke:url(#SVGID_00000170276126358721293000000018445243892303651510_);stroke-width:6;" d="M202.1,258.7
	c-24.7,0-76.4,0-78.1,0c1,0.9,42.8,32.7,63.2,48L202.1,258.7z"/>
<linearGradient id="SVGID_00000114776759305962370060000007948012653323218619_" gradientUnits="userSpaceOnUse" x1="158.1535" y1="208.4739" x2="264.4335" y2="203.3169" gradientTransform="matrix(1 0 0 -1 0 602)">
	<stop  offset="0" style="stop-color:#FFCD00"/>
	<stop  offset="1" style="stop-color:#484C26"/>
</linearGradient>
<path style="fill:none;stroke:url(#SVGID_00000114776759305962370060000007948012653323218619_);stroke-width:6;" d="M190.4,370.7
	c-5,16.1-15.4,49.4-15.7,50.7c0.1,0,46.1-34.5,67.4-50.7H190.4z"/>
<linearGradient id="SVGID_00000026875970106553132170000012871797151625106061_" gradientUnits="userSpaceOnUse" x1="185.702" y1="311.6133" x2="380.383" y2="308.2781" gradientTransform="matrix(1 0 0 -1 0 602)">
	<stop  offset="0" style="stop-color:#FFCD00"/>
	<stop  offset="1" style="stop-color:#484C26"/>
</linearGradient>
<path style="fill:none;stroke:url(#SVGID_00000026875970106553132170000012871797151625106061_);stroke-width:6;" d="M317,349.9
	l-32.8-105.1C279,227.9,257.2,159,257,159c-0.2,0-14.7,45.6-16.3,50.7h30.8l-7.2,29.1H247l-30.9,100H240l7.2-23.4h32.5l-15.2,49.6
	c23.8,18.1,74.7,56.2,74.8,56.3C339,420.1,324.3,372.9,317,349.9z"/>
<linearGradient id="SVGID_00000148657101727630287050000015978315637860331402_" gradientUnits="userSpaceOnUse" x1="278.6399" y1="319.5829" x2="419.5789" y2="311.2058" gradientTransform="matrix(1 0 0 -1 0 602)">
	<stop  offset="0" style="stop-color:#FFCD00"/>
	<stop  offset="1" style="stop-color:#484C26"/>
</linearGradient>
<path style="fill:none;stroke:url(#SVGID_00000148657101727630287050000015978315637860331402_);stroke-width:6;" d="M300.5,258.7
	l17.1,54.9c23.4-17.6,71.3-54,72.3-54.9C388.3,258.6,329.1,258.6,300.5,258.7z"/>
</svg>
