<svg width="360" height="375" viewBox="0 0 360 375" fill="none" xmlns="http://www.w3.org/2000/svg">
<g filter="url(#filter0_d_185_6082)">
<path d="M328 187.5C328 268.962 261.962 335 180.5 335C99.038 335 33 268.962 33 187.5C33 106.038 99.038 40 180.5 40C261.962 40 328 106.038 328 187.5ZM110.858 187.5C110.858 225.962 142.038 257.142 180.5 257.142C218.962 257.142 250.142 225.962 250.142 187.5C250.142 149.038 218.962 117.858 180.5 117.858C142.038 117.858 110.858 149.038 110.858 187.5Z" fill="white"/>
</g>
<mask id="path-2-inside-1_185_6082" fill="white">
<path d="M328 187.5C328 224.368 314.193 259.899 289.299 287.094C264.405 314.289 230.23 331.175 193.505 334.426C156.781 337.676 120.17 327.056 90.8865 304.657C61.6029 282.257 41.7693 249.704 35.2933 213.409C28.8173 177.114 36.1684 139.71 55.8984 108.565C75.6284 77.4207 106.307 54.7941 141.889 45.1432C177.472 35.4923 215.378 39.5169 248.141 56.424C280.904 73.3311 306.147 101.895 318.898 136.488L245.845 163.414C239.825 147.081 227.906 133.595 212.437 125.612C196.968 117.629 179.07 115.729 162.27 120.286C145.469 124.843 130.985 135.526 121.669 150.231C112.354 164.936 108.883 182.596 111.94 199.733C114.998 216.87 124.362 232.24 138.189 242.816C152.015 253.392 169.301 258.406 186.64 256.871C203.98 255.336 220.116 247.364 231.87 234.524C243.623 221.684 250.142 204.907 250.142 187.5L328 187.5Z"/>
</mask>
<path d="M328 187.5C328 224.368 314.193 259.899 289.299 287.094C264.405 314.289 230.23 331.175 193.505 334.426C156.781 337.676 120.17 327.056 90.8865 304.657C61.6029 282.257 41.7693 249.704 35.2933 213.409C28.8173 177.114 36.1684 139.71 55.8984 108.565C75.6284 77.4207 106.307 54.7941 141.889 45.1432C177.472 35.4923 215.378 39.5169 248.141 56.424C280.904 73.3311 306.147 101.895 318.898 136.488L245.845 163.414C239.825 147.081 227.906 133.595 212.437 125.612C196.968 117.629 179.07 115.729 162.27 120.286C145.469 124.843 130.985 135.526 121.669 150.231C112.354 164.936 108.883 182.596 111.94 199.733C114.998 216.87 124.362 232.24 138.189 242.816C152.015 253.392 169.301 258.406 186.64 256.871C203.98 255.336 220.116 247.364 231.87 234.524C243.623 221.684 250.142 204.907 250.142 187.5L328 187.5Z" fill="#FFCD00" stroke="white" stroke-width="6" mask="url(#path-2-inside-1_185_6082)"/>
<mask id="path-3-inside-2_185_6082" fill="white">
<path d="M328 187.5C328 213.91 320.909 239.836 307.468 262.57C294.026 285.304 274.727 304.011 251.587 316.74C228.446 329.468 202.313 335.75 175.915 334.929C149.518 334.108 123.825 326.214 101.52 312.073C79.2148 297.931 61.1158 278.06 49.113 254.535C37.1103 231.01 31.644 204.694 33.285 178.335C34.9261 151.976 43.6143 126.54 58.4424 104.686C73.2705 82.8311 93.6944 65.3586 117.581 54.0928L150.793 124.511C139.515 129.831 129.871 138.08 122.87 148.399C115.869 158.718 111.767 170.727 110.992 183.173C110.217 195.618 112.798 208.043 118.465 219.151C124.132 230.258 132.678 239.64 143.209 246.317C153.741 252.994 165.872 256.721 178.335 257.109C190.799 257.496 203.138 254.531 214.064 248.521C224.99 242.511 234.102 233.678 240.448 222.944C246.794 212.211 250.142 199.97 250.142 187.5H328Z"/>
</mask>
<path d="M328 187.5C328 213.91 320.909 239.836 307.468 262.57C294.026 285.304 274.727 304.011 251.587 316.74C228.446 329.468 202.313 335.75 175.915 334.929C149.518 334.108 123.825 326.214 101.52 312.073C79.2148 297.931 61.1158 278.06 49.113 254.535C37.1103 231.01 31.644 204.694 33.285 178.335C34.9261 151.976 43.6143 126.54 58.4424 104.686C73.2705 82.8311 93.6944 65.3586 117.581 54.0928L150.793 124.511C139.515 129.831 129.871 138.08 122.87 148.399C115.869 158.718 111.767 170.727 110.992 183.173C110.217 195.618 112.798 208.043 118.465 219.151C124.132 230.258 132.678 239.64 143.209 246.317C153.741 252.994 165.872 256.721 178.335 257.109C190.799 257.496 203.138 254.531 214.064 248.521C224.99 242.511 234.102 233.678 240.448 222.944C246.794 212.211 250.142 199.97 250.142 187.5H328Z" fill="#FFF2CC" stroke="white" stroke-width="6" mask="url(#path-3-inside-2_185_6082)"/>
<mask id="path-4-inside-3_185_6082" fill="white">
<path d="M328 187.5C328 212.197 321.799 236.498 309.965 258.175C298.132 279.852 281.045 298.211 260.272 311.568C239.498 324.924 215.704 332.851 191.071 334.621C166.437 336.391 141.754 331.947 119.285 321.697C96.8153 311.448 77.2792 295.72 62.4683 275.958C47.6574 256.195 38.0457 233.03 34.5151 208.587C30.9844 184.144 33.6477 159.205 42.2607 136.059C50.8737 112.913 65.1606 92.3002 83.811 76.1111L134.848 134.907C126.042 142.551 119.297 152.284 115.23 163.212C111.163 174.141 109.906 185.915 111.573 197.456C113.24 208.997 117.778 219.935 124.771 229.266C131.764 238.597 140.988 246.022 151.597 250.862C162.206 255.701 173.86 257.799 185.491 256.963C197.122 256.128 208.356 252.385 218.164 246.079C227.972 239.772 236.04 231.104 241.627 220.869C247.215 210.635 250.142 199.161 250.142 187.5H328Z"/>
</mask>
<path d="M328 187.5C328 212.197 321.799 236.498 309.965 258.175C298.132 279.852 281.045 298.211 260.272 311.568C239.498 324.924 215.704 332.851 191.071 334.621C166.437 336.391 141.754 331.947 119.285 321.697C96.8153 311.448 77.2792 295.72 62.4683 275.958C47.6574 256.195 38.0457 233.03 34.5151 208.587C30.9844 184.144 33.6477 159.205 42.2607 136.059C50.8737 112.913 65.1606 92.3002 83.811 76.1111L134.848 134.907C126.042 142.551 119.297 152.284 115.23 163.212C111.163 174.141 109.906 185.915 111.573 197.456C113.24 208.997 117.778 219.935 124.771 229.266C131.764 238.597 140.988 246.022 151.597 250.862C162.206 255.701 173.86 257.799 185.491 256.963C197.122 256.128 208.356 252.385 218.164 246.079C227.972 239.772 236.04 231.104 241.627 220.869C247.215 210.635 250.142 199.161 250.142 187.5H328Z" fill="#FFE599" stroke="white" stroke-width="6" mask="url(#path-4-inside-3_185_6082)"/>
<mask id="path-5-inside-4_185_6082" fill="white">
<path d="M328 187.5C328 223.92 314.526 259.053 290.171 286.133C265.817 313.213 232.305 330.325 196.089 334.174C159.873 338.023 123.513 328.337 94.0105 306.981C64.5084 285.626 43.9504 254.11 36.2951 218.503L112.413 202.138C116.028 218.95 125.734 233.83 139.664 243.913C153.593 253.997 170.761 258.57 187.86 256.752C204.96 254.935 220.783 246.856 232.282 234.07C243.78 221.284 250.142 204.696 250.142 187.5H328Z"/>
</mask>
<path d="M328 187.5C328 223.92 314.526 259.053 290.171 286.133C265.817 313.213 232.305 330.325 196.089 334.174C159.873 338.023 123.513 328.337 94.0105 306.981C64.5084 285.626 43.9504 254.11 36.2951 218.503L112.413 202.138C116.028 218.95 125.734 233.83 139.664 243.913C153.593 253.997 170.761 258.57 187.86 256.752C204.96 254.935 220.783 246.856 232.282 234.07C243.78 221.284 250.142 204.696 250.142 187.5H328Z" fill="#FFD966" stroke="white" stroke-width="6" mask="url(#path-5-inside-4_185_6082)"/>
<mask id="path-6-inside-5_185_6082" fill="white">
<path d="M328 187.5C328 220.713 316.79 252.955 296.186 279.004C275.581 305.054 246.788 323.387 214.467 331.036C182.146 338.684 148.19 335.201 118.096 321.149C88.0013 307.097 63.5302 283.299 48.6442 253.608L118.244 218.713C125.272 232.732 136.826 243.968 151.036 250.603C165.245 257.237 181.277 258.882 196.538 255.271C211.798 251.659 225.393 243.003 235.121 230.704C244.85 218.405 250.142 203.182 250.142 187.5H328Z"/>
</mask>
<path d="M328 187.5C328 220.713 316.79 252.955 296.186 279.004C275.581 305.054 246.788 323.387 214.467 331.036C182.146 338.684 148.19 335.201 118.096 321.149C88.0013 307.097 63.5302 283.299 48.6442 253.608L118.244 218.713C125.272 232.732 136.826 243.968 151.036 250.603C165.245 257.237 181.277 258.882 196.538 255.271C211.798 251.659 225.393 243.003 235.121 230.704C244.85 218.405 250.142 203.182 250.142 187.5H328Z" fill="#F1C232" stroke="white" stroke-width="6" mask="url(#path-6-inside-5_185_6082)"/>
<mask id="path-7-inside-6_185_6082" fill="white">
<path d="M328 187.5C328 217.941 318.582 247.636 301.037 272.513C283.492 297.389 258.68 316.227 230.005 326.444C201.33 336.661 170.196 337.756 140.874 329.578C111.552 321.4 85.4788 304.35 66.2305 280.767L126.547 231.536C135.636 242.671 147.946 250.721 161.791 254.582C175.635 258.444 190.335 257.927 203.874 253.103C217.413 248.279 229.128 239.384 237.412 227.639C245.696 215.893 250.142 201.873 250.142 187.5H328Z"/>
</mask>
<path d="M328 187.5C328 217.941 318.582 247.636 301.037 272.513C283.492 297.389 258.68 316.227 230.005 326.444C201.33 336.661 170.196 337.756 140.874 329.578C111.552 321.4 85.4788 304.35 66.2305 280.767L126.547 231.536C135.636 242.671 147.946 250.721 161.791 254.582C175.635 258.444 190.335 257.927 203.874 253.103C217.413 248.279 229.128 239.384 237.412 227.639C245.696 215.893 250.142 201.873 250.142 187.5H328Z" fill="#BF9000" stroke="white" stroke-width="6" mask="url(#path-7-inside-6_185_6082)"/>
<mask id="path-8-inside-7_185_6082" fill="white">
<path d="M328 187.5C328 223.811 314.606 258.846 290.384 285.896C266.161 312.947 232.812 330.112 196.721 334.105L188.159 256.72C205.199 254.835 220.945 246.73 232.382 233.958C243.819 221.186 250.142 204.644 250.142 187.5H328Z"/>
</mask>
<path d="M328 187.5C328 223.811 314.606 258.846 290.384 285.896C266.161 312.947 232.812 330.112 196.721 334.105L188.159 256.72C205.199 254.835 220.945 246.73 232.382 233.958C243.819 221.186 250.142 204.644 250.142 187.5H328Z" fill="#7F6000" stroke="white" stroke-width="6" mask="url(#path-8-inside-7_185_6082)"/>
<path fill-rule="evenodd" clip-rule="evenodd" d="M167.168 179.731C161.165 179.731 148.611 179.731 148.19 179.731C148.442 179.956 158.594 187.783 163.539 191.561L167.168 179.731Z" stroke="#FFCD00" stroke-width="2"/>
<path fill-rule="evenodd" clip-rule="evenodd" d="M164.319 207.33C163.097 211.298 160.586 219.493 160.499 219.81C160.531 219.81 171.699 211.31 176.873 207.33H164.319Z" stroke="#FFCD00" stroke-width="2"/>
<path fill-rule="evenodd" clip-rule="evenodd" d="M195.086 202.188L187.118 176.308C185.851 172.156 180.54 155.19 180.497 155.19C180.453 155.19 176.916 166.411 176.529 167.67H184.023L182.282 174.842H178.079L170.568 199.473H176.37L178.117 193.722H186.01L182.32 205.943C188.095 210.4 200.468 219.786 200.501 219.809C200.408 219.493 196.844 207.87 195.086 202.188Z" stroke="#FFCD00" stroke-width="2"/>
<path fill-rule="evenodd" clip-rule="evenodd" d="M191.07 179.735L195.234 193.25C200.922 188.919 212.559 179.948 212.81 179.724C212.389 179.724 198.013 179.718 191.07 179.735Z" stroke="#FFCD00" stroke-width="2"/>
<mask id="path-13-inside-8_185_6082" fill="white">
<path d="M328 187.5C328 207.649 323.872 227.584 315.87 246.077L244.415 215.157C248.193 206.426 250.142 197.013 250.142 187.5H328Z"/>
</mask>
<path d="M328 187.5C328 207.649 323.872 227.584 315.87 246.077L244.415 215.157C248.193 206.426 250.142 197.013 250.142 187.5H328Z" fill="#241F0A" stroke="white" stroke-width="6" mask="url(#path-13-inside-8_185_6082)"/>
<mask id="path-14-inside-9_185_6082" fill="white">
<path d="M320.571 141.278C328.494 165.289 330.112 190.933 325.27 215.749L248.853 200.838C251.14 189.121 250.376 177.013 246.635 165.676L320.571 141.278Z"/>
</mask>
<path d="M320.571 141.278C328.494 165.289 330.112 190.933 325.27 215.749L248.853 200.838C251.14 189.121 250.376 177.013 246.635 165.676L320.571 141.278Z" fill="#938A65" stroke="white" stroke-width="5.49738" mask="url(#path-14-inside-9_185_6082)"/>
<g filter="url(#filter1_d_185_6082)">
<mask id="path-15-inside-10_185_6082" fill="white">
<path d="M328 187.5C328 225.116 313.628 261.311 287.824 288.682C262.021 316.052 226.735 332.53 189.184 334.744C151.633 336.959 114.654 324.743 85.8122 300.595C56.9702 276.447 38.4438 242.192 34.0224 204.837C29.6011 167.481 39.6189 129.848 62.0268 99.6345C84.4347 69.4209 117.539 48.91 154.57 42.2971C191.6 35.6843 229.758 43.4692 261.238 64.0595C292.719 84.6498 315.143 116.49 323.924 153.066L248.218 171.242C244.072 153.972 233.484 138.939 218.621 129.217C203.757 119.495 185.741 115.82 168.257 118.942C150.773 122.064 135.143 131.749 124.563 146.014C113.983 160.28 109.253 178.048 111.34 195.686C113.428 213.323 122.175 229.497 135.793 240.898C149.411 252.299 166.87 258.067 184.6 257.022C202.33 255.976 218.99 248.196 231.173 235.273C243.357 222.35 250.142 205.261 250.142 187.5H328Z"/>
</mask>
<path d="M328 187.5C328 225.116 313.628 261.311 287.824 288.682C262.021 316.052 226.735 332.53 189.184 334.744C151.633 336.959 114.654 324.743 85.8122 300.595C56.9702 276.447 38.4438 242.192 34.0224 204.837C29.6011 167.481 39.6189 129.848 62.0268 99.6345C84.4347 69.4209 117.539 48.91 154.57 42.2971C191.6 35.6843 229.758 43.4692 261.238 64.0595C292.719 84.6498 315.143 116.49 323.924 153.066L248.218 171.242C244.072 153.972 233.484 138.939 218.621 129.217C203.757 119.495 185.741 115.82 168.257 118.942C150.773 122.064 135.143 131.749 124.563 146.014C113.983 160.28 109.253 178.048 111.34 195.686C113.428 213.323 122.175 229.497 135.793 240.898C149.411 252.299 166.87 258.067 184.6 257.022C202.33 255.976 218.99 248.196 231.173 235.273C243.357 222.35 250.142 205.261 250.142 187.5H328Z" fill="#9B893A"/>
<path d="M328 187.5C328 225.116 313.628 261.311 287.824 288.682C262.021 316.052 226.735 332.53 189.184 334.744C151.633 336.959 114.654 324.743 85.8122 300.595C56.9702 276.447 38.4438 242.192 34.0224 204.837C29.6011 167.481 39.6189 129.848 62.0268 99.6345C84.4347 69.4209 117.539 48.91 154.57 42.2971C191.6 35.6843 229.758 43.4692 261.238 64.0595C292.719 84.6498 315.143 116.49 323.924 153.066L248.218 171.242C244.072 153.972 233.484 138.939 218.621 129.217C203.757 119.495 185.741 115.82 168.257 118.942C150.773 122.064 135.143 131.749 124.563 146.014C113.983 160.28 109.253 178.048 111.34 195.686C113.428 213.323 122.175 229.497 135.793 240.898C149.411 252.299 166.87 258.067 184.6 257.022C202.33 255.976 218.99 248.196 231.173 235.273C243.357 222.35 250.142 205.261 250.142 187.5H328Z" stroke="white" stroke-width="5.49738" mask="url(#path-15-inside-10_185_6082)"/>
</g>
<mask id="path-16-inside-11_185_6082" fill="white">
<path d="M328 187.5C328 215.942 319.777 243.777 304.322 267.653C288.866 291.529 266.837 310.427 240.889 322.071C214.94 333.716 186.178 337.61 158.067 333.284C129.956 328.958 103.695 316.598 82.4478 297.691C61.2003 278.784 45.8721 254.137 38.3096 226.719C30.7472 199.301 31.2729 170.282 39.8236 143.156C48.3743 116.03 64.5851 91.9546 86.5036 73.8297C108.422 55.7049 135.113 44.3035 163.362 40.999L172.408 118.329C159.071 119.889 146.468 125.273 136.119 133.83C125.771 142.388 118.117 153.755 114.079 166.563C110.042 179.37 109.794 193.072 113.364 206.017C116.935 218.963 124.172 230.6 134.204 239.527C144.237 248.454 156.636 254.29 169.908 256.332C183.181 258.375 196.761 256.536 209.013 251.038C221.264 245.54 231.665 236.617 238.963 225.344C246.26 214.071 250.142 200.929 250.142 187.5H328Z"/>
</mask>
<path d="M328 187.5C328 215.942 319.777 243.777 304.322 267.653C288.866 291.529 266.837 310.427 240.889 322.071C214.94 333.716 186.178 337.61 158.067 333.284C129.956 328.958 103.695 316.598 82.4478 297.691C61.2003 278.784 45.8721 254.137 38.3096 226.719C30.7472 199.301 31.2729 170.282 39.8236 143.156C48.3743 116.03 64.5851 91.9546 86.5036 73.8297C108.422 55.7049 135.113 44.3035 163.362 40.999L172.408 118.329C159.071 119.889 146.468 125.273 136.119 133.83C125.771 142.388 118.117 153.755 114.079 166.563C110.042 179.37 109.794 193.072 113.364 206.017C116.935 218.963 124.172 230.6 134.204 239.527C144.237 248.454 156.636 254.29 169.908 256.332C183.181 258.375 196.761 256.536 209.013 251.038C221.264 245.54 231.665 236.617 238.963 225.344C246.26 214.071 250.142 200.929 250.142 187.5H328Z" fill="white" stroke="white" stroke-width="6" mask="url(#path-16-inside-11_185_6082)"/>
<mask id="path-17-inside-12_185_6082" fill="white">
<path d="M328 187.5C328 215.17 320.217 242.281 305.54 265.738C290.864 289.194 269.885 308.05 245.001 320.149C220.117 332.249 192.332 337.106 164.819 334.164C137.306 331.222 111.175 320.601 89.4119 303.514C67.6487 286.426 51.1307 263.562 41.745 237.533C32.3592 211.504 30.4843 183.359 36.3343 156.315C42.1843 129.271 55.5234 104.417 74.8277 84.5942C94.1319 64.771 118.623 50.7774 145.502 44.2121L163.976 119.846C151.285 122.946 139.721 129.553 130.607 138.913C121.492 148.272 115.194 160.007 112.432 172.776C109.67 185.545 110.555 198.833 114.986 211.123C119.418 223.413 127.217 234.208 137.493 242.276C147.768 250.344 160.106 255.359 173.096 256.748C186.086 258.137 199.205 255.844 210.954 250.131C222.703 244.418 232.608 235.515 239.538 224.44C246.468 213.365 250.142 200.564 250.142 187.5H328Z"/>
</mask>
<path d="M328 187.5C328 215.17 320.217 242.281 305.54 265.738C290.864 289.194 269.885 308.05 245.001 320.149C220.117 332.249 192.332 337.106 164.819 334.164C137.306 331.222 111.175 320.601 89.4119 303.514C67.6487 286.426 51.1307 263.562 41.745 237.533C32.3592 211.504 30.4843 183.359 36.3343 156.315C42.1843 129.271 55.5234 104.417 74.8277 84.5942C94.1319 64.771 118.623 50.7774 145.502 44.2121L163.976 119.846C151.285 122.946 139.721 129.553 130.607 138.913C121.492 148.272 115.194 160.007 112.432 172.776C109.67 185.545 110.555 198.833 114.986 211.123C119.418 223.413 127.217 234.208 137.493 242.276C147.768 250.344 160.106 255.359 173.096 256.748C186.086 258.137 199.205 255.844 210.954 250.131C222.703 244.418 232.608 235.515 239.538 224.44C246.468 213.365 250.142 200.564 250.142 187.5H328Z" fill="#886E00" stroke="white" stroke-width="5.49738" mask="url(#path-17-inside-12_185_6082)"/>
<mask id="path-18-inside-13_185_6082" fill="white">
<path d="M328 187.5C328 208.584 323.48 229.424 314.744 248.613C306.008 267.803 293.259 284.897 277.358 298.742C261.456 312.588 242.771 322.863 222.562 328.875C202.353 334.888 181.09 336.498 160.206 333.597C139.322 330.696 119.303 323.352 101.498 312.059C83.6925 300.766 68.5154 285.787 56.9895 268.131C45.4636 250.476 37.8568 230.555 34.6819 209.711C31.5069 188.867 32.8377 167.584 38.5844 147.298L113.494 168.519C110.781 178.097 110.153 188.145 111.652 197.987C113.151 207.828 116.742 217.234 122.184 225.57C127.626 233.906 134.792 240.979 143.199 246.311C151.606 251.643 161.058 255.11 170.918 256.48C180.779 257.85 190.818 257.09 200.36 254.251C209.901 251.412 218.724 246.56 226.232 240.023C233.74 233.486 239.759 225.415 243.884 216.355C248.008 207.294 250.142 197.455 250.142 187.5H328Z"/>
</mask>
<path d="M328 187.5C328 208.584 323.48 229.424 314.744 248.613C306.008 267.803 293.259 284.897 277.358 298.742C261.456 312.588 242.771 322.863 222.562 328.875C202.353 334.888 181.09 336.498 160.206 333.597C139.322 330.696 119.303 323.352 101.498 312.059C83.6925 300.766 68.5154 285.787 56.9895 268.131C45.4636 250.476 37.8568 230.555 34.6819 209.711C31.5069 188.867 32.8377 167.584 38.5844 147.298L113.494 168.519C110.781 178.097 110.153 188.145 111.652 197.987C113.151 207.828 116.742 217.234 122.184 225.57C127.626 233.906 134.792 240.979 143.199 246.311C151.606 251.643 161.058 255.11 170.918 256.48C180.779 257.85 190.818 257.09 200.36 254.251C209.901 251.412 218.724 246.56 226.232 240.023C233.74 233.486 239.759 225.415 243.884 216.355C248.008 207.294 250.142 197.455 250.142 187.5H328Z" fill="#AF900F" stroke="white" stroke-width="5.49738" mask="url(#path-18-inside-13_185_6082)"/>
<mask id="path-19-inside-14_185_6082" fill="white">
<path d="M328 187.5C328 207.313 324.008 226.922 316.263 245.159C308.519 263.395 297.179 279.884 282.922 293.642C268.664 307.399 251.781 318.144 233.281 325.233C214.78 332.323 195.04 335.613 175.24 334.906C155.44 334.2 135.985 329.511 118.036 321.121C100.088 312.731 84.0138 300.81 70.7733 286.071C57.5329 271.332 47.3975 254.077 40.9721 235.335C34.5467 216.593 31.963 196.749 33.3752 176.987L111.035 182.536C110.368 191.867 111.588 201.236 114.622 210.085C117.655 218.935 122.441 227.082 128.692 234.041C134.944 241 142.533 246.628 151.008 250.589C159.482 254.551 168.668 256.765 178.016 257.098C187.365 257.432 196.685 255.879 205.42 252.531C214.156 249.184 222.127 244.111 228.859 237.615C235.59 231.119 240.944 223.334 244.601 214.724C248.258 206.113 250.142 196.855 250.142 187.5H328Z"/>
</mask>
<path d="M328 187.5C328 207.313 324.008 226.922 316.263 245.159C308.519 263.395 297.179 279.884 282.922 293.642C268.664 307.399 251.781 318.144 233.281 325.233C214.78 332.323 195.04 335.613 175.24 334.906C155.44 334.2 135.985 329.511 118.036 321.121C100.088 312.731 84.0138 300.81 70.7733 286.071C57.5329 271.332 47.3975 254.077 40.9721 235.335C34.5467 216.593 31.963 196.749 33.3752 176.987L111.035 182.536C110.368 191.867 111.588 201.236 114.622 210.085C117.655 218.935 122.441 227.082 128.692 234.041C134.944 241 142.533 246.628 151.008 250.589C159.482 254.551 168.668 256.765 178.016 257.098C187.365 257.432 196.685 255.879 205.42 252.531C214.156 249.184 222.127 244.111 228.859 237.615C235.59 231.119 240.944 223.334 244.601 214.724C248.258 206.113 250.142 196.855 250.142 187.5H328Z" fill="#DDB200" stroke="white" stroke-width="5.49738" mask="url(#path-19-inside-14_185_6082)"/>
<mask id="path-20-inside-15_185_6082" fill="white">
<path d="M328 187.5C328 225.236 313.537 261.537 287.586 288.934C261.635 316.331 226.171 332.739 188.49 334.783C150.809 336.828 113.778 324.352 85.0157 299.923C56.2534 275.495 37.9479 240.971 33.8656 203.456L111.266 195.034C113.194 212.747 121.837 229.047 135.417 240.581C148.997 252.115 166.481 258.005 184.272 257.04C202.064 256.075 218.808 248.328 231.061 235.392C243.314 222.457 250.142 205.317 250.142 187.5H328Z"/>
</mask>
<path d="M328 187.5C328 225.236 313.537 261.537 287.586 288.934C261.635 316.331 226.171 332.739 188.49 334.783C150.809 336.828 113.778 324.352 85.0157 299.923C56.2534 275.495 37.9479 240.971 33.8656 203.456L111.266 195.034C113.194 212.747 121.837 229.047 135.417 240.581C148.997 252.115 166.481 258.005 184.272 257.04C202.064 256.075 218.808 248.328 231.061 235.392C243.314 222.457 250.142 205.317 250.142 187.5H328Z" fill="#FFCD00" stroke="white" stroke-width="5.49738" mask="url(#path-20-inside-15_185_6082)"/>
<mask id="path-21-inside-16_185_6082" fill="white">
<path d="M328 187.5C328 219.835 317.375 251.274 297.759 276.98C278.143 302.686 250.623 321.233 219.435 329.768C188.247 338.304 155.118 336.354 125.146 324.219C95.1744 312.085 70.0205 290.437 53.5552 262.608L120.563 222.963C128.337 236.102 140.213 246.323 154.365 252.052C168.516 257.782 184.158 258.702 198.883 254.672C213.609 250.642 226.602 241.885 235.864 229.748C245.126 217.611 250.142 202.767 250.142 187.5H328Z"/>
</mask>
<path d="M328 187.5C328 219.835 317.375 251.274 297.759 276.98C278.143 302.686 250.623 321.233 219.435 329.768C188.247 338.304 155.118 336.354 125.146 324.219C95.1744 312.085 70.0205 290.437 53.5552 262.608L120.563 222.963C128.337 236.102 140.213 246.323 154.365 252.052C168.516 257.782 184.158 258.702 198.883 254.672C213.609 250.642 226.602 241.885 235.864 229.748C245.126 217.611 250.142 202.767 250.142 187.5H328Z" fill="#FFE599" stroke="white" stroke-width="5.49738" mask="url(#path-21-inside-16_185_6082)"/>
<mask id="path-22-inside-17_185_6082" fill="white">
<path d="M328 187.5C328 212.801 321.492 237.677 309.101 259.736C296.71 281.795 278.853 300.296 257.247 313.461C235.641 326.625 211.011 334.011 185.726 334.907C160.441 335.804 135.35 330.181 112.866 318.58L148.566 249.39C159.183 254.867 171.029 257.522 182.968 257.099C194.906 256.675 206.535 253.188 216.736 246.973C226.938 240.757 235.369 232.022 241.219 221.606C247.07 211.191 250.142 199.446 250.142 187.5H328Z"/>
</mask>
<path d="M328 187.5C328 212.801 321.492 237.677 309.101 259.736C296.71 281.795 278.853 300.296 257.247 313.461C235.641 326.625 211.011 334.011 185.726 334.907C160.441 335.804 135.35 330.181 112.866 318.58L148.566 249.39C159.183 254.867 171.029 257.522 182.968 257.099C194.906 256.675 206.535 253.188 216.736 246.973C226.938 240.757 235.369 232.022 241.219 221.606C247.07 211.191 250.142 199.446 250.142 187.5H328Z" fill="#241F0A" stroke="white" stroke-width="5.49738" mask="url(#path-22-inside-17_185_6082)"/>
<mask id="path-23-inside-18_185_6082" fill="white">
<path d="M328 187.5C328 217.71 318.724 247.192 301.425 271.959L237.595 227.377C245.763 215.684 250.142 201.764 250.142 187.5H328Z"/>
</mask>
<path d="M328 187.5C328 217.71 318.724 247.192 301.425 271.959L237.595 227.377C245.763 215.684 250.142 201.764 250.142 187.5H328Z" fill="#544A1E" stroke="white" stroke-width="5.49738" mask="url(#path-23-inside-18_185_6082)"/>
<path fill-rule="evenodd" clip-rule="evenodd" d="M167.168 179.731C161.165 179.731 148.611 179.731 148.19 179.731C148.442 179.955 158.594 187.782 163.539 191.561L167.168 179.731Z" stroke="#FFCD00" stroke-width="2"/>
<path fill-rule="evenodd" clip-rule="evenodd" d="M164.319 207.329C163.096 211.297 160.586 219.493 160.498 219.809C160.531 219.809 171.698 211.309 176.873 207.329H164.319Z" stroke="#FFCD00" stroke-width="2"/>
<path fill-rule="evenodd" clip-rule="evenodd" d="M195.086 202.187L187.117 176.308C185.851 172.155 180.54 155.19 180.497 155.19C180.453 155.19 176.916 166.41 176.528 167.67H184.022L182.281 174.841H178.079L170.568 199.473H176.37L178.117 193.722H186.009L182.32 205.943C188.094 210.4 200.468 219.785 200.501 219.808C200.408 219.492 196.844 207.869 195.086 202.187Z" stroke="#FFCD00" stroke-width="2"/>
<path fill-rule="evenodd" clip-rule="evenodd" d="M191.07 179.736L195.234 193.25C200.922 188.92 212.558 179.948 212.809 179.724C212.389 179.724 198.012 179.718 191.07 179.736Z" stroke="#FFCD00" stroke-width="2"/>
<g filter="url(#filter2_i_185_6082)">
<path d="M328 187.5C328 268.962 261.962 335 180.5 335C99.0382 335 33.0002 268.962 33.0002 187.5C33.0002 106.038 99.0382 40 180.5 40C261.962 40 328 106.038 328 187.5ZM110.858 187.5C110.858 225.962 142.038 257.142 180.5 257.142C218.963 257.142 250.143 225.962 250.143 187.5C250.143 149.037 218.963 117.857 180.5 117.857C142.038 117.857 110.858 149.037 110.858 187.5Z" fill="white"/>
</g>
<mask id="mask0_185_6082" style="mask-type:alpha" maskUnits="userSpaceOnUse" x="33" y="40" width="295" height="295">
<path d="M328 187.5C328 268.962 261.962 335 180.5 335C99.0382 335 33.0002 268.962 33.0002 187.5C33.0002 106.038 99.0382 40 180.5 40C261.962 40 328 106.038 328 187.5ZM110.858 187.5C110.858 225.962 142.038 257.142 180.5 257.142C218.963 257.142 250.143 225.962 250.143 187.5C250.143 149.037 218.963 117.857 180.5 117.857C142.038 117.857 110.858 149.037 110.858 187.5Z" fill="white"/>
</mask>
<g mask="url(#mask0_185_6082)">
<path d="M328 187.5C328 268.962 261.962 335 180.5 335C99.0382 335 33.0002 268.962 33.0002 187.5C33.0002 106.038 99.0382 40 180.5 40C261.962 40 328 106.038 328 187.5ZM110.858 187.5C110.858 225.962 142.038 257.142 180.5 257.142C218.963 257.142 250.143 225.962 250.143 187.5C250.143 149.037 218.963 117.857 180.5 117.857C142.038 117.857 110.858 149.037 110.858 187.5Z" fill="#FFCD00" stroke="white" stroke-width="3.38038"/>
</g>
<mask id="mask1_185_6082" style="mask-type:alpha" maskUnits="userSpaceOnUse" x="33" y="40" width="295" height="295">
<path d="M328 187.5C328 220.903 316.662 253.317 295.842 279.438C275.022 305.558 245.952 323.838 213.389 331.286C180.827 338.734 146.701 334.91 116.596 320.438C86.4902 305.966 62.1887 281.704 47.6674 251.622C33.1461 221.541 29.2652 187.421 36.6598 154.847C44.0545 122.273 62.2868 93.1731 88.3728 72.3095C114.459 51.4463 146.855 40.0551 180.257 40.0002C213.66 39.9453 246.094 51.2299 272.248 72.0073L223.819 132.97C211.47 123.16 196.157 117.831 180.386 117.857C164.614 117.883 149.319 123.262 137.002 133.113C124.686 142.963 116.077 156.703 112.585 172.083C109.094 187.463 110.927 203.572 117.783 217.775C124.639 231.979 136.113 243.434 150.327 250.267C164.542 257.1 180.655 258.905 196.029 255.389C211.403 251.872 225.128 243.241 234.959 230.908C244.789 218.576 250.143 203.271 250.143 187.5H328Z" fill="white"/>
</mask>
<g mask="url(#mask1_185_6082)">
<path d="M328 187.5C328 220.903 316.662 253.317 295.842 279.438C275.022 305.558 245.952 323.838 213.389 331.286C180.827 338.734 146.701 334.91 116.596 320.438C86.4902 305.966 62.1887 281.704 47.6674 251.622C33.1461 221.541 29.2652 187.421 36.6598 154.847C44.0545 122.273 62.2868 93.1731 88.3728 72.3095C114.459 51.4463 146.855 40.0551 180.257 40.0002C213.66 39.9453 246.094 51.2299 272.248 72.0073L223.819 132.97C211.47 123.16 196.157 117.831 180.386 117.857C164.614 117.883 149.319 123.262 137.002 133.113C124.686 142.963 116.077 156.703 112.585 172.083C109.094 187.463 110.927 203.572 117.783 217.775C124.639 231.979 136.113 243.434 150.327 250.267C164.542 257.1 180.655 258.905 196.029 255.389C211.403 251.872 225.128 243.241 234.959 230.908C244.789 218.576 250.143 203.271 250.143 187.5H328Z" fill="#FFF2CC" stroke="white" stroke-width="3.38038"/>
</g>
<mask id="mask2_185_6082" style="mask-type:alpha" maskUnits="userSpaceOnUse" x="33" y="40" width="295" height="295">
<path d="M328 187.5C328 218.261 318.382 248.254 300.492 273.279C282.603 298.304 257.337 317.11 228.23 327.064C199.123 337.018 167.633 337.623 138.165 328.794C108.698 319.964 82.7276 302.144 63.8903 277.824C45.0529 253.504 34.2903 223.904 33.1089 193.164C31.9274 162.426 40.3863 132.087 57.3016 106.392C74.2166 80.699 98.7423 60.937 127.445 49.8722C156.148 38.8073 187.592 36.9934 217.377 44.6843L197.911 120.069C183.848 116.438 169.002 117.294 155.45 122.518C141.898 127.743 130.318 137.074 122.331 149.205C114.345 161.336 110.351 175.661 110.909 190.174C111.467 204.688 116.548 218.664 125.442 230.147C134.336 241.629 146.598 250.044 160.512 254.212C174.425 258.381 189.293 258.095 203.036 253.395C216.778 248.696 228.708 239.816 237.155 228.001C245.601 216.185 250.143 202.024 250.143 187.5H328Z" fill="white"/>
</mask>
<g mask="url(#mask2_185_6082)">
<path d="M328 187.5C328 218.261 318.382 248.254 300.493 273.279C282.603 298.304 257.337 317.11 228.23 327.064C199.123 337.018 167.633 337.623 138.165 328.794C108.698 319.964 82.7278 302.144 63.8906 277.824C45.0531 253.504 34.2905 223.904 33.1091 193.164C31.9277 162.426 40.3865 132.087 57.3018 106.392C74.2168 80.699 98.7426 60.937 127.446 49.8722C156.148 38.8073 187.592 36.9934 217.377 44.6843L197.912 120.069C183.849 116.438 169.002 117.294 155.45 122.518C141.898 127.743 130.319 137.074 122.332 149.205C114.345 161.336 110.351 175.661 110.909 190.174C111.467 204.688 116.549 218.664 125.443 230.147C134.337 241.629 146.599 250.044 160.512 254.212C174.425 258.381 189.293 258.095 203.036 253.395C216.779 248.696 228.708 239.816 237.155 228.001C245.601 216.185 250.143 202.024 250.143 187.5H328Z" fill="#FFE599" stroke="white" stroke-width="3.38038"/>
</g>
<mask id="mask3_185_6082" style="mask-type:alpha" maskUnits="userSpaceOnUse" x="33" y="41" width="295" height="294">
<path d="M328 187.5C328 215.799 319.859 243.501 304.548 267.302C289.237 291.102 267.403 309.995 241.65 321.727C215.897 333.459 187.312 337.536 159.306 333.469C131.3 329.403 105.055 317.366 83.7027 298.794C62.3493 280.222 46.7896 255.9 38.8794 228.729C30.9693 201.557 31.0426 172.683 39.0907 145.552C47.1389 118.421 62.822 94.1784 84.2694 75.7152C105.716 57.2522 132.022 45.3487 160.048 41.4248L170.844 118.53C157.611 120.383 145.191 126.003 135.064 134.72C124.938 143.438 117.533 154.884 113.733 167.694C109.934 180.504 109.899 194.137 113.634 206.966C117.368 219.795 124.715 231.279 134.797 240.048C144.879 248.817 157.27 254.5 170.493 256.42C183.717 258.339 197.213 256.415 209.372 250.876C221.532 245.336 231.84 236.416 239.07 225.178C246.299 213.941 250.143 200.862 250.143 187.5H328Z" fill="white"/>
</mask>
<g mask="url(#mask3_185_6082)">
<path d="M328 187.5C328 215.799 319.859 243.501 304.548 267.302C289.237 291.102 267.403 309.995 241.65 321.727C215.897 333.459 187.312 337.536 159.306 333.469C131.3 329.403 105.055 317.366 83.7027 298.794C62.3493 280.222 46.7896 255.9 38.8794 228.729C30.9693 201.557 31.0426 172.683 39.0907 145.552C47.1389 118.421 62.822 94.1784 84.2694 75.7152C105.716 57.2522 132.022 45.3487 160.048 41.4248L170.844 118.53C157.611 120.383 145.191 126.003 135.064 134.72C124.938 143.438 117.533 154.884 113.733 167.694C109.934 180.504 109.899 194.137 113.634 206.966C117.368 219.795 124.715 231.279 134.797 240.048C144.879 248.817 157.27 254.5 170.493 256.42C183.717 258.339 197.213 256.415 209.372 250.876C221.532 245.336 231.84 236.416 239.07 225.178C246.299 213.941 250.143 200.862 250.143 187.5H328Z" fill="#FFD966" stroke="white" stroke-width="3.38038"/>
</g>
<mask id="mask4_185_6082" style="mask-type:alpha" maskUnits="userSpaceOnUse" x="33" y="77" width="295" height="258">
<path d="M328 187.5C328 212.135 321.829 236.379 310.051 258.017C298.273 279.655 281.263 297.998 260.574 311.372C239.884 324.746 216.174 332.725 191.608 334.58C167.043 336.436 142.404 332.109 119.94 321.994C97.4763 311.879 77.9041 296.298 63.0097 276.675C48.1154 257.052 38.3735 234.01 34.6733 209.654C30.973 185.297 33.4324 160.402 41.8268 137.24C50.2212 114.079 64.2832 93.3889 82.7295 77.0591L134.337 135.355C125.628 143.065 118.989 152.834 115.025 163.77C111.062 174.705 109.901 186.46 111.647 197.96C113.395 209.46 117.994 220.339 125.026 229.604C132.059 238.869 141.3 246.225 151.906 251.001C162.513 255.777 174.146 257.82 185.745 256.944C197.343 256.068 208.539 252.301 218.307 245.987C228.076 239.672 236.107 231.011 241.668 220.794C247.229 210.578 250.143 199.131 250.143 187.5H328Z" fill="white"/>
</mask>
<g mask="url(#mask4_185_6082)">
<path d="M328 187.5C328 212.136 321.83 236.379 310.052 258.017C298.274 279.655 281.263 297.999 260.574 311.373C239.884 324.747 216.174 332.726 191.609 334.581C167.043 336.436 142.404 332.109 119.94 321.994C97.4765 311.879 77.9043 296.299 63.0099 276.675C48.1156 257.052 38.3737 234.01 34.6735 209.654C30.9733 185.298 33.4326 160.403 41.8271 137.241C50.2214 114.079 64.2835 93.3894 82.7298 77.0596L134.337 135.355C125.628 143.066 118.989 152.834 115.025 163.77C111.062 174.706 109.901 186.46 111.648 197.96C113.395 209.46 117.995 220.339 125.027 229.604C132.059 238.869 141.3 246.226 151.907 251.002C162.513 255.778 174.146 257.821 185.745 256.945C197.344 256.069 208.539 252.302 218.307 245.987C228.076 239.672 236.107 231.011 241.668 220.795C247.229 210.579 250.143 199.132 250.143 187.5H328Z" fill="#F1C232" stroke="white" stroke-width="3.38038"/>
</g>
<mask id="mask5_185_6082" style="mask-type:alpha" maskUnits="userSpaceOnUse" x="33" y="156" width="295" height="179">
<path d="M328 187.5C328 208.185 323.649 228.639 315.23 247.534C306.811 266.428 294.512 283.34 279.132 297.172C263.752 311.004 245.634 321.447 225.955 327.821C206.277 334.196 185.478 336.36 164.909 334.174C144.339 331.987 124.46 325.499 106.561 315.13C88.6627 304.761 73.1454 290.743 61.0166 273.987C48.8879 257.23 40.4191 238.111 36.1603 217.868C31.9015 197.627 31.9479 176.715 36.2964 156.492L112.414 172.86C110.361 182.408 110.339 192.281 112.35 201.839C114.361 211.396 118.359 220.424 124.086 228.335C129.813 236.246 137.139 242.865 145.59 247.761C154.041 252.656 163.427 255.72 173.139 256.753C182.85 257.785 192.671 256.763 201.962 253.753C211.253 250.743 219.808 245.813 227.069 239.282C234.331 232.752 240.138 224.766 244.113 215.845C248.088 206.924 250.143 197.267 250.143 187.5H328Z" fill="white"/>
</mask>
<g mask="url(#mask5_185_6082)">
<path d="M328 187.5C328 208.185 323.649 228.639 315.23 247.533C306.811 266.428 294.512 283.34 279.132 297.172C263.752 311.004 245.634 321.446 225.955 327.821C206.277 334.195 185.478 336.359 164.909 334.173C144.339 331.987 124.46 325.498 106.561 315.129C88.6627 304.76 73.1454 290.742 61.0166 273.986C48.8879 257.23 40.4191 238.11 36.1603 217.868C31.9015 197.626 31.9479 176.715 36.2964 156.492L112.414 172.859C110.361 182.408 110.339 192.28 112.35 201.838C114.361 211.395 118.359 220.423 124.086 228.334C129.813 236.246 137.139 242.865 145.59 247.76C154.041 252.656 163.427 255.72 173.139 256.752C182.85 257.784 192.671 256.763 201.962 253.752C211.253 250.743 219.808 245.813 227.069 239.282C234.331 232.751 240.138 224.765 244.113 215.845C248.088 206.924 250.143 197.266 250.143 187.5H328Z" fill="#BF9000" stroke="white" stroke-width="3.38038"/>
</g>
<mask id="mask6_185_6082" style="mask-type:alpha" maskUnits="userSpaceOnUse" x="99" y="187" width="229" height="148">
<path d="M328 187.5C328 214.13 320.791 240.264 307.137 263.127C293.482 285.99 273.893 304.731 250.449 317.359C227.003 329.988 200.576 336.034 173.973 334.856C147.368 333.677 121.58 325.318 99.3428 310.666L142.182 245.653C152.681 252.571 164.857 256.518 177.418 257.074C189.979 257.63 202.457 254.776 213.526 248.813C224.596 242.851 233.845 234.003 240.292 223.207C246.739 212.413 250.143 200.074 250.143 187.5H328Z" fill="white"/>
</mask>
<g mask="url(#mask6_185_6082)">
<path d="M328 187.5C328 214.13 320.791 240.263 307.137 263.126C293.482 285.99 273.893 304.73 250.449 317.359C227.003 329.988 200.576 336.033 173.973 334.855C147.368 333.676 121.58 325.317 99.3428 310.665L142.182 245.653C152.681 252.57 164.857 256.517 177.418 257.074C189.979 257.63 202.457 254.776 213.526 248.813C224.596 242.85 233.845 234.002 240.292 223.207C246.739 212.412 250.143 200.073 250.143 187.5H328Z" fill="#7F6000" stroke="white" stroke-width="3.38038"/>
<path fill-rule="evenodd" clip-rule="evenodd" d="M167.111 179.699C161.081 179.699 148.472 179.699 148.05 179.699C148.302 179.925 158.499 187.785 163.465 191.58L167.111 179.699Z" stroke="#FFCD00" stroke-width="1.12679"/>
<path fill-rule="evenodd" clip-rule="evenodd" d="M164.25 207.413C163.022 211.399 160.5 219.63 160.412 219.947C160.445 219.947 171.661 211.41 176.858 207.413H164.25Z" stroke="#FFCD00" stroke-width="1.12679"/>
<path fill-rule="evenodd" clip-rule="evenodd" d="M195.148 202.25L187.145 176.257C185.873 172.087 180.539 155.047 180.495 155.047C180.451 155.047 176.899 166.316 176.51 167.582H184.037L182.288 174.785H178.067L170.524 199.523H176.351L178.105 193.747H186.032L182.326 206.021C188.126 210.498 200.554 219.925 200.587 219.948C200.493 219.63 196.914 207.956 195.148 202.25Z" stroke="#FFCD00" stroke-width="1.12679"/>
<path fill-rule="evenodd" clip-rule="evenodd" d="M191.116 179.701L195.299 193.275C201.011 188.926 212.698 179.915 212.951 179.689C212.528 179.689 198.089 179.684 191.116 179.701Z" stroke="#FFCD00" stroke-width="1.12679"/>
</g>
<mask id="mask7_185_6082" style="mask-type:alpha" maskUnits="userSpaceOnUse" x="161" y="187" width="167" height="148">
<path d="M328 187.5C328 208.488 323.521 229.233 314.863 248.352C306.204 267.47 293.565 284.521 277.791 298.364C262.016 312.207 243.468 322.524 223.388 328.627C203.307 334.729 182.155 336.476 161.345 333.751L171.456 256.553C181.282 257.839 191.268 257.014 200.75 254.134C210.231 251.252 218.988 246.381 226.436 239.844C233.884 233.308 239.851 225.258 243.94 216.231C248.028 207.205 250.143 197.41 250.143 187.5H328Z" fill="white"/>
</mask>
<g mask="url(#mask7_185_6082)">
<path d="M328 187.5C328 208.487 323.521 229.233 314.863 248.352C306.204 267.47 293.565 284.52 277.79 298.363C262.016 312.207 243.468 322.524 223.387 328.626C203.307 334.729 182.155 336.476 161.345 333.75L171.456 256.552C181.281 257.839 191.268 257.014 200.749 254.133C210.231 251.252 218.988 246.38 226.436 239.844C233.884 233.308 239.851 225.258 243.94 216.231C248.028 207.204 250.142 197.409 250.142 187.5H328Z" fill="#241F0A" stroke="white" stroke-width="3.38038"/>
</g>
<mask id="mask8_185_6082" style="mask-type:alpha" maskUnits="userSpaceOnUse" x="194" y="187" width="134" height="145">
<path d="M328 187.5C328 221.423 316.307 254.309 294.891 280.618C273.475 306.926 243.645 325.049 210.428 331.931L194.631 255.693C210.314 252.444 224.399 243.887 234.51 231.466C244.622 219.044 250.143 203.517 250.143 187.5H328Z" fill="white"/>
</mask>
<g mask="url(#mask8_185_6082)">
<path d="M328 187.5C328 221.423 316.307 254.309 294.892 280.617C273.476 306.926 243.646 325.048 210.428 331.931L194.631 255.693C210.315 252.443 224.399 243.887 234.51 231.465C244.622 219.044 250.143 203.516 250.143 187.5H328Z" fill="#3C3924" stroke="white" stroke-width="3.38038"/>
</g>
<mask id="mask9_185_6082" style="mask-type:alpha" maskUnits="userSpaceOnUse" x="246" y="187" width="82" height="50">
<path d="M328 187.5C328 204.105 325.196 220.59 319.707 236.262L246.227 210.523C248.818 203.123 250.143 195.34 250.143 187.5H328Z" fill="white"/>
</mask>
<g mask="url(#mask9_185_6082)">
<path d="M328 187.5C328 204.104 325.196 220.59 319.707 236.261L246.227 210.522C248.819 203.123 250.143 195.34 250.143 187.5H328Z" fill="white" stroke="white" stroke-width="3.38038"/>
</g>
<defs>
<filter id="filter0_d_185_6082" x="23" y="30" width="315" height="315" filterUnits="userSpaceOnUse" color-interpolation-filters="sRGB">
<feFlood flood-opacity="0" result="BackgroundImageFix"/>
<feColorMatrix in="SourceAlpha" type="matrix" values="0 0 0 0 0 0 0 0 0 0 0 0 0 0 0 0 0 0 127 0" result="hardAlpha"/>
<feOffset/>
<feGaussianBlur stdDeviation="5"/>
<feComposite in2="hardAlpha" operator="out"/>
<feColorMatrix type="matrix" values="0 0 0 0 1 0 0 0 0 1 0 0 0 0 1 0 0 0 0.05 0"/>
<feBlend mode="normal" in2="BackgroundImageFix" result="effect1_dropShadow_185_6082"/>
<feBlend mode="normal" in="SourceGraphic" in2="effect1_dropShadow_185_6082" result="shape"/>
</filter>
<filter id="filter1_d_185_6082" x="-7.00049" y="-0.000488281" width="375" height="375" filterUnits="userSpaceOnUse" color-interpolation-filters="sRGB">
<feFlood flood-opacity="0" result="BackgroundImageFix"/>
<feColorMatrix in="SourceAlpha" type="matrix" values="0 0 0 0 0 0 0 0 0 0 0 0 0 0 0 0 0 0 127 0" result="hardAlpha"/>
<feOffset/>
<feGaussianBlur stdDeviation="20"/>
<feComposite in2="hardAlpha" operator="out"/>
<feColorMatrix type="matrix" values="0 0 0 0 1 0 0 0 0 1 0 0 0 0 1 0 0 0 0.3 0"/>
<feBlend mode="normal" in2="BackgroundImageFix" result="effect1_dropShadow_185_6082"/>
<feBlend mode="normal" in="SourceGraphic" in2="effect1_dropShadow_185_6082" result="shape"/>
</filter>
<filter id="filter2_i_185_6082" x="33.0002" y="40" width="295" height="295" filterUnits="userSpaceOnUse" color-interpolation-filters="sRGB">
<feFlood flood-opacity="0" result="BackgroundImageFix"/>
<feBlend mode="normal" in="SourceGraphic" in2="BackgroundImageFix" result="shape"/>
<feColorMatrix in="SourceAlpha" type="matrix" values="0 0 0 0 0 0 0 0 0 0 0 0 0 0 0 0 0 0 127 0" result="hardAlpha"/>
<feOffset/>
<feGaussianBlur stdDeviation="11.268"/>
<feComposite in2="hardAlpha" operator="arithmetic" k2="-1" k3="1"/>
<feColorMatrix type="matrix" values="0 0 0 0 1 0 0 0 0 1 0 0 0 0 1 0 0 0 0.3 0"/>
<feBlend mode="normal" in2="shape" result="effect1_innerShadow_185_6082"/>
</filter>
</defs>
</svg>
