<svg width="65" height="65" viewBox="0 0 67 67" fill="none" xmlns="http://www.w3.org/2000/svg">
<circle cx="33.5" cy="33.5" r="32.5" fill="url(#paint0_linear_28_5)" stroke="url(#paint1_linear_28_5)" stroke-width="2"></circle>
<path d="M33.0003 22C26.3834 22 21.0004 27.383 21.0004 33.9998C21.0004 36.4421 21.7243 38.7727 23.0988 40.773L21.0881 44.7944C20.9369 45.0962 20.9832 45.4591 21.2049 45.7141C21.3658 45.899 21.5964 45.9997 21.8332 45.9997C21.9225 45.9997 22.0123 45.9857 22.0996 45.9561L26.9046 44.3333C28.7476 45.4249 30.8466 45.9997 33.0001 45.9997C39.617 45.9997 45 40.6167 45 33.9998C45 27.383 39.6171 22 33.0003 22ZM27.4168 30.8093C27.4168 29.4898 28.4902 28.4164 29.8097 28.4164C31.1292 28.4164 32.2026 29.4898 32.2026 30.8093C32.2026 32.1289 31.1292 33.2023 29.8097 33.2023C28.4902 33.2022 27.4168 32.1288 27.4168 30.8093ZM30.18 37.9486C30.0241 38.1044 29.8201 38.1823 29.616 38.1823C29.412 38.1823 29.2078 38.1044 29.0521 37.9486C28.7406 37.637 28.7406 37.1322 29.0521 36.8207L35.8201 30.0522C36.1317 29.7406 36.6364 29.7406 36.948 30.0522C37.2596 30.3637 37.2596 30.8686 36.948 31.1801L30.18 37.9486ZM36.1908 39.5833C34.8713 39.5833 33.7978 38.5099 33.7978 37.1904C33.7978 35.8709 34.8712 34.7975 36.1908 34.7975C37.5103 34.7975 38.5837 35.8709 38.5837 37.1904C38.5837 38.5099 37.5103 39.5833 36.1908 39.5833Z" fill="url(#paint2_linear_28_5)"></path>
<defs>
<linearGradient id="paint0_linear_28_5" x1="-6.11111" y1="-16.2088" x2="78.1448" y2="109.098" gradientUnits="userSpaceOnUse">
<stop stop-color="#090A0B"></stop>
<stop offset="1" stop-color="#1B1C13" stop-opacity="0.4"></stop>
</linearGradient>
<linearGradient id="paint1_linear_28_5" x1="1" y1="-22.494" x2="84.5912" y2="81.9122" gradientUnits="userSpaceOnUse">
<stop stop-color="currentColor"></stop>
<stop offset="1" stop-color="#393938" stop-opacity="0.3"></stop>
</linearGradient>
<linearGradient id="paint2_linear_28_5" x1="21" y1="13.3254" x2="51.864" y2="51.8753" gradientUnits="userSpaceOnUse">
<stop stop-color="currentColor"></stop>
<stop offset="1" stop-color="#393938" stop-opacity="0.3"></stop>
</linearGradient>
</defs>
</svg>