<svg width="65" height="65" viewBox="0 0 67 67" fill="none" xmlns="http://www.w3.org/2000/svg">
<circle cx="33.5" cy="33.5" r="32.5" fill="url(#paint0_linear_27_2)" stroke="url(#paint1_linear_27_2)" stroke-width="2"></circle>
<path d="M40.5 23H25.5C25.1023 23.0005 24.721 23.1812 24.4398 23.5026C24.1586 23.824 24.0004 24.2598 24 24.7143V35.8571C23.9983 37.5666 24.404 39.2443 25.1736 40.7101C25.9431 42.176 27.0474 43.3746 28.368 44.1774L33 47L37.632 44.1774C38.9526 43.3746 40.0569 42.176 40.8264 40.7101C41.596 39.2443 42.0017 37.5666 42 35.8571V24.7143C41.9996 24.2598 41.8414 23.824 41.5602 23.5026C41.279 23.1812 40.8977 23.0005 40.5 23ZM38.25 36.7143H27.75V35H38.25V36.7143ZM38.25 31.5714H27.75V29.8571H38.25V31.5714Z" fill="url(#paint2_linear_27_2)"></path>
<defs>
<linearGradient id="paint0_linear_27_2" x1="-6.11111" y1="-16.2088" x2="78.1448" y2="109.098" gradientUnits="userSpaceOnUse">
<stop stop-color="#090A0B"></stop>
<stop offset="1" stop-color="#1B1C13" stop-opacity="0.4"></stop>
</linearGradient>
<linearGradient id="paint1_linear_27_2" x1="1" y1="-22.494" x2="84.5912" y2="81.9122" gradientUnits="userSpaceOnUse">
<stop stop-color="currentColor"></stop>
<stop offset="1" stop-color="#393938" stop-opacity="0.3"></stop>
</linearGradient>
<linearGradient id="paint2_linear_27_2" x1="24" y1="14.3253" x2="55.5632" y2="43.8923" gradientUnits="userSpaceOnUse">
<stop stop-color="currentColor"></stop>
<stop offset="1" stop-color="#393938" stop-opacity="0.3"></stop>
</linearGradient>
</defs>
</svg>