<svg width="65" height="65" viewBox="0 0 67 67" fill="none" xmlns="http://www.w3.org/2000/svg">
<circle cx="33.5" cy="33.5" r="32.5" fill="url(#paint0_linear_28_90)" stroke="url(#paint1_linear_28_90)" stroke-width="2"></circle>
<path d="M47.5391 38.262C45.9721 36.9402 44.2823 36.0653 43.9381 35.8954C43.9013 35.8765 43.8767 35.8387 43.8767 35.7884V33.2895C44.1839 33.0818 44.3867 32.7231 44.3867 32.3139V29.7207C44.3867 28.4304 43.3667 27.3855 42.1069 27.3855H41.8365H41.5662C40.3064 27.3855 39.2864 28.4304 39.2864 29.7207V32.3139C39.2864 32.7231 39.4891 33.0755 39.7964 33.2895V35.7884C39.7964 35.8324 39.7718 35.8702 39.7349 35.8954C39.5567 35.9835 39.0098 36.2667 38.3032 36.7073C36.9574 35.7632 35.7775 35.1526 35.4764 35.0016C35.4334 34.9764 35.4027 34.9323 35.4027 34.882V31.9363C35.7653 31.6908 35.9988 31.2691 35.9988 30.7907V27.7443C35.9988 26.2274 34.8005 25 33.3195 25H32.9877H32.6682C31.1872 25 29.9889 26.2274 29.9889 27.7443V30.7907C29.9889 31.2691 30.2286 31.6908 30.585 31.9363V34.8757C30.585 34.926 30.5543 34.9764 30.5113 34.9953C30.2102 35.1463 29.0303 35.7569 27.6846 36.701C26.9779 36.2667 26.431 35.9835 26.2528 35.8891C26.2159 35.8702 26.1913 35.8324 26.1913 35.7821V33.2832C26.4986 33.0755 26.7014 32.7168 26.7014 32.3076V29.7144C26.7014 28.4241 25.6813 27.3792 24.4215 27.3792H24.1512H23.8808C22.6211 27.3792 21.601 28.4241 21.601 29.7144V32.3076C21.601 32.7168 21.8038 33.0692 22.111 33.2832V35.7821C22.111 35.8261 22.0864 35.8639 22.0496 35.8891C21.7054 36.059 20.0156 36.9339 18.4486 38.2557C18.1659 38.4949 18 38.8537 18 39.225V41H24.1573H25.7673H30.3146H32.0537L32.6743 38.0858C31.4207 36.2919 32.7665 36.2101 33 36.2038C33.2335 36.2038 34.5854 36.2919 33.3257 38.0858L33.9463 41H35.6854H40.2327H41.8427H48V39.225C47.9877 38.86 47.8218 38.5012 47.5391 38.262Z" fill="url(#paint2_linear_28_90)"></path>
<defs>
<linearGradient id="paint0_linear_28_90" x1="-6.11111" y1="-16.2088" x2="78.1448" y2="109.098" gradientUnits="userSpaceOnUse">
<stop stop-color="#090A0B"></stop>
<stop offset="1" stop-color="#1B1C13" stop-opacity="0.4"></stop>
</linearGradient>
<linearGradient id="paint1_linear_28_90" x1="1" y1="-22.494" x2="84.5912" y2="81.9122" gradientUnits="userSpaceOnUse">
<stop stop-color="currentColor"></stop>
<stop offset="1" stop-color="#393938" stop-opacity="0.3"></stop>
</linearGradient>
<linearGradient id="paint2_linear_28_90" x1="18" y1="19.2169" x2="33.2314" y2="54.8871" gradientUnits="userSpaceOnUse">
<stop stop-color="currentColor"></stop>
<stop offset="1" stop-color="#393938" stop-opacity="0.3"></stop>
</linearGradient>
</defs>
</svg>