<svg width="65" height="65" viewBox="0 0 67 67" fill="none" xmlns="http://www.w3.org/2000/svg">
<circle cx="33.5" cy="33.5" r="32.5" fill="url(#paint0_linear_30_11)" stroke="url(#paint1_linear_30_11)" stroke-width="2"></circle>
<path d="M33 27.75V21H26.25C25.6533 21 25.081 21.2371 24.659 21.659C24.2371 22.081 24 22.6533 24 23.25V42.75C24 43.3467 24.2371 43.919 24.659 44.341C25.081 44.7629 25.6533 45 26.25 45H39.75C40.3467 45 40.919 44.7629 41.341 44.341C41.7629 43.919 42 43.3467 42 42.75V30H35.25C34.6533 30 34.081 29.7629 33.659 29.341C33.2371 28.919 33 28.3467 33 27.75ZM27 33.75C27 33.5511 27.079 33.3603 27.2197 33.2197C27.3603 33.079 27.5511 33 27.75 33C27.9489 33 28.1397 33.079 28.2803 33.2197C28.421 33.3603 28.5 33.5511 28.5 33.75C28.5 33.9489 28.421 34.1397 28.2803 34.2803C28.1397 34.421 27.9489 34.5 27.75 34.5C27.5511 34.5 27.3603 34.421 27.2197 34.2803C27.079 34.1397 27 33.9489 27 33.75ZM27 36.75C27 36.5511 27.079 36.3603 27.2197 36.2197C27.3603 36.079 27.5511 36 27.75 36C27.9489 36 28.1397 36.079 28.2803 36.2197C28.421 36.3603 28.5 36.5511 28.5 36.75C28.5 36.9489 28.421 37.1397 28.2803 37.2803C28.1397 37.421 27.9489 37.5 27.75 37.5C27.5511 37.5 27.3603 37.421 27.2197 37.2803C27.079 37.1397 27 36.9489 27 36.75ZM27 39.75C27 39.5511 27.079 39.3603 27.2197 39.2197C27.3603 39.079 27.5511 39 27.75 39C27.9489 39 28.1397 39.079 28.2803 39.2197C28.421 39.3603 28.5 39.5511 28.5 39.75C28.5 39.9489 28.421 40.1397 28.2803 40.2803C28.1397 40.421 27.9489 40.5 27.75 40.5C27.5511 40.5 27.3603 40.421 27.2197 40.2803C27.079 40.1397 27 39.9489 27 39.75ZM30 33.75C30 33.5511 30.079 33.3603 30.2197 33.2197C30.3603 33.079 30.5511 33 30.75 33H38.25C38.4489 33 38.6397 33.079 38.7803 33.2197C38.921 33.3603 39 33.5511 39 33.75C39 33.9489 38.921 34.1397 38.7803 34.2803C38.6397 34.421 38.4489 34.5 38.25 34.5H30.75C30.5511 34.5 30.3603 34.421 30.2197 34.2803C30.079 34.1397 30 33.9489 30 33.75ZM30 36.75C30 36.5511 30.079 36.3603 30.2197 36.2197C30.3603 36.079 30.5511 36 30.75 36H38.25C38.4489 36 38.6397 36.079 38.7803 36.2197C38.921 36.3603 39 36.5511 39 36.75C39 36.9489 38.921 37.1397 38.7803 37.2803C38.6397 37.421 38.4489 37.5 38.25 37.5H30.75C30.5511 37.5 30.3603 37.421 30.2197 37.2803C30.079 37.1397 30 36.9489 30 36.75ZM30 39.75C30 39.5511 30.079 39.3603 30.2197 39.2197C30.3603 39.079 30.5511 39 30.75 39H38.25C38.4489 39 38.6397 39.079 38.7803 39.2197C38.921 39.3603 39 39.5511 39 39.75C39 39.9489 38.921 40.1397 38.7803 40.2803C38.6397 40.421 38.4489 40.5 38.25 40.5H30.75C30.5511 40.5 30.3603 40.421 30.2197 40.2803C30.079 40.1397 30 39.9489 30 39.75ZM34.5 27.75V21.375L41.625 28.5H35.25C35.0511 28.5 34.8603 28.421 34.7197 28.2803C34.579 28.1397 34.5 27.9489 34.5 27.75Z" fill="url(#paint2_linear_30_11)"></path>
<defs>
<linearGradient id="paint0_linear_30_11" x1="-6.11111" y1="-16.2088" x2="78.1448" y2="109.098" gradientUnits="userSpaceOnUse">
<stop stop-color="#090A0B"></stop>
<stop offset="1" stop-color="#1B1C13" stop-opacity="0.4"></stop>
</linearGradient>
<linearGradient id="paint1_linear_30_11" x1="1" y1="-22.494" x2="84.5912" y2="81.9122" gradientUnits="userSpaceOnUse">
<stop offset="0.567708" stop-color="currentColor"></stop>
<stop offset="0.927083" stop-color="#1B1C13" stop-opacity="0.4"></stop>
</linearGradient>
<linearGradient id="paint2_linear_30_11" x1="24" y1="12.3253" x2="55.5632" y2="41.8923" gradientUnits="userSpaceOnUse">
<stop offset="0.479167" stop-color="currentColor"></stop>
<stop offset="0.927083" stop-color="#1B1C13" stop-opacity="0.4"></stop>
</linearGradient>
</defs>
</svg>